<?xml version="1.0" standalone="no"?><!DOCTYPE svg PUBLIC "-//W3C//DTD SVG 1.1//EN" "http://www.w3.org/Graphics/SVG/1.1/DTD/svg11.dtd"><svg t="1575098564730" class="icon" viewBox="0 0 1024 1024" version="1.1" xmlns="http://www.w3.org/2000/svg" p-id="4472" xmlns:xlink="http://www.w3.org/1999/xlink" width="200" height="200"><defs><style type="text/css"></style></defs><path d="M899.59400879 865.75967597L766.63376386 690.81198506l-0.99970136-0.99970137c113.96592422-132.96024492 123.96293526-334.89986484 13.99581563-479.85652265-125.96233711-165.95038125-359.892392-196.94111484-522.84367003-68.979375C93.83493008 268.93812588 63.84389785 506.86698448 189.80623497 672.81736573c116.96502744 153.95396748 326.90225654 190.94290839 486.85443046 92.97220078l130.96084306 172.94828906c19.99402208 25.99222852 55.98326075 30.99073359 81.97548927 10.99671152 24.99252715-19.99402208 29.9910331-57.98266347 9.99701103-83.97489111zM659.66574658 671.81766435c-124.96263575 97.97070674-304.90883262 74.97758145-401.8798371-52.98415752C160.81490322 491.87146836 183.80802852 307.92646778 309.77036562 209.95576104 434.73300224 111.9850543 614.67919825 134.97817959 711.65020362 262.93991855c95.97130489 126.96203848 72.97817959 310.90703906-51.98445704 408.8777458z" p-id="4473"></path></svg>