<?xml version="1.0" standalone="no"?><!DOCTYPE svg PUBLIC "-//W3C//DTD SVG 1.1//EN" "http://www.w3.org/Graphics/SVG/1.1/DTD/svg11.dtd"><svg t="1575366644794" class="icon" viewBox="0 0 1024 1024" version="1.1" xmlns="http://www.w3.org/2000/svg" p-id="2451" xmlns:xlink="http://www.w3.org/1999/xlink" width="200" height="200"><defs><style type="text/css"></style></defs><path d="M147.012 430.89c-44.791 0-81.109 36.305-81.109 81.11 0 44.779 36.317 81.108 81.109 81.108 44.792 0 81.109-36.33 81.109-81.108 0-44.805-36.316-81.11-81.11-81.11z m364.987 0c-44.79 0-81.108 36.305-81.108 81.11 0 44.779 36.316 81.108 81.108 81.108 44.793 0 81.11-36.33 81.11-81.108 0-44.805-36.317-81.11-81.11-81.11z m364.988 0c-44.79 0-81.108 36.305-81.108 81.11 0 44.779 36.316 81.108 81.108 81.108s81.109-36.33 81.109-81.108c-0.002-44.805-36.318-81.11-81.109-81.11z" p-id="2452"></path></svg>